<svg xmlns="http://www.w3.org/2000/svg">
  <defs>
    <!-- Dashboard -->
    <symbol id="icon-dashboard" viewBox="0 0 24 24" fill="none" stroke="currentColor" stroke-width="2" stroke-linecap="round" stroke-linejoin="round">
      <rect x="3" y="3" width="7" height="7" rx="1"/>
      <rect x="14" y="3" width="7" height="7" rx="1"/>
      <rect x="3" y="14" width="7" height="7" rx="1"/>
      <rect x="14" y="14" width="7" height="7" rx="1"/>
    </symbol>
    <!-- Files -->
    <symbol id="icon-files" viewBox="0 0 24 24" fill="none" stroke="currentColor" stroke-width="2" stroke-linecap="round" stroke-linejoin="round">
      <path d="M14 2H6a2 2 0 0 0-2 2v16a2 2 0 0 0 2 2h12a2 2 0 0 0 2-2V8z"/>
      <polyline points="14 2 14 8 20 8"/>
      <line x1="16" y1="13" x2="8" y2="13"/>
      <line x1="16" y1="17" x2="8" y2="17"/>
    </symbol>
    <!-- Upload -->
    <symbol id="icon-upload" viewBox="0 0 24 24" fill="none" stroke="currentColor" stroke-width="2" stroke-linecap="round" stroke-linejoin="round">
      <path d="M21 15v4a2 2 0 0 1-2 2H5a2 2 0 0 1-2-2v-4"/>
      <polyline points="17 8 12 3 7 8"/>
      <line x1="12" y1="3" x2="12" y2="15"/>
    </symbol>
    <!-- Settings -->
    <symbol id="icon-settings" viewBox="0 0 24 24" fill="none" stroke="currentColor" stroke-width="2" stroke-linecap="round" stroke-linejoin="round">
      <circle cx="12" cy="12" r="3"/>
      <path d="M19.4 15a1.65 1.65 0 0 0 .33 1.82l.06.06a2 2 0 0 1-2.83 2.83l-.06-.06a1.65 1.65 0 0 0-1.82-.33 1.65 1.65 0 0 0-1 1.51V21a2 2 0 0 1-4 0v-.09A1.65 1.65 0 0 0 9 19.4a1.65 1.65 0 0 0-1.82.33l-.06.06a2 2 0 0 1-2.83-2.83l.06-.06A1.65 1.65 0 0 0 4.68 15a1.65 1.65 0 0 0-1.51-1H3a2 2 0 0 1 0-4h.09A1.65 1.65 0 0 0 4.6 9a1.65 1.65 0 0 0-.33-1.82l-.06-.06a2 2 0 0 1 2.83-2.83l.06.06A1.65 1.65 0 0 0 9 4.68a1.65 1.65 0 0 0 1-1.51V3a2 2 0 0 1 4 0v.09a1.65 1.65 0 0 0 1 1.51 1.65 1.65 0 0 0 1.82-.33l.06-.06a2 2 0 0 1 2.83 2.83l-.06.06A1.65 1.65 0 0 0 19.4 9a1.65 1.65 0 0 0 1.51 1H21a2 2 0 0 1 0 4h-.09a1.65 1.65 0 0 0-1.51 1z"/>
    </symbol>
    <!-- Users/Team -->
    <symbol id="icon-users" viewBox="0 0 24 24" fill="none" stroke="currentColor" stroke-width="2" stroke-linecap="round" stroke-linejoin="round">
      <path d="M17 21v-2a4 4 0 0 0-4-4H5a4 4 0 0 0-4 4v2"/>
      <circle cx="9" cy="7" r="4"/>
      <path d="M23 21v-2a4 4 0 0 0-3-3.87"/>
      <path d="M16 3.13a4 4 0 0 1 0 7.75"/>
    </symbol>
    <!-- Search -->
    <symbol id="icon-search" viewBox="0 0 24 24" fill="none" stroke="currentColor" stroke-width="2" stroke-linecap="round" stroke-linejoin="round">
      <circle cx="11" cy="11" r="8"/>
      <line x1="21" y1="21" x2="16.65" y2="16.65"/>
    </symbol>
    <!-- Notification Bell -->
    <symbol id="icon-bell" viewBox="0 0 24 24" fill="none" stroke="currentColor" stroke-width="2" stroke-linecap="round" stroke-linejoin="round">
      <path d="M18 8A6 6 0 0 0 6 8c0 7-3 9-3 9h18s-3-2-3-9"/>
      <path d="M13.73 21a2 2 0 0 1-3.46 0"/>
    </symbol>
    <!-- Storage/Server -->
    <symbol id="icon-storage" viewBox="0 0 24 24" fill="none" stroke="currentColor" stroke-width="2" stroke-linecap="round" stroke-linejoin="round">
      <ellipse cx="12" cy="5" rx="9" ry="3"/>
      <path d="M21 12c0 1.66-4 3-9 3s-9-1.34-9-3"/>
      <path d="M3 5v14c0 1.66 4 3 9 3s9-1.34 9-3V5"/>
    </symbol>
    <!-- File -->
    <symbol id="icon-file" viewBox="0 0 24 24" fill="none" stroke="currentColor" stroke-width="2" stroke-linecap="round" stroke-linejoin="round">
      <path d="M13 2H6a2 2 0 0 0-2 2v16a2 2 0 0 0 2 2h12a2 2 0 0 0 2-2V9z"/>
      <polyline points="13 2 13 9 20 9"/>
    </symbol>
    <!-- Visits/Eye -->
    <symbol id="icon-visits" viewBox="0 0 24 24" fill="none" stroke="currentColor" stroke-width="2" stroke-linecap="round" stroke-linejoin="round">
      <path d="M1 12s4-8 11-8 11 8 11 8-4 8-11 8-11-8-11-8z"/>
      <circle cx="12" cy="12" r="3"/>
    </symbol>
    <!-- Menu/Hamburger -->
    <symbol id="icon-menu" viewBox="0 0 24 24" fill="none" stroke="currentColor" stroke-width="2" stroke-linecap="round" stroke-linejoin="round">
      <line x1="3" y1="12" x2="21" y2="12"/>
      <line x1="3" y1="6" x2="21" y2="6"/>
      <line x1="3" y1="18" x2="21" y2="18"/>
    </symbol>
    <!-- X/Close -->
    <symbol id="icon-x" viewBox="0 0 24 24" fill="none" stroke="currentColor" stroke-width="2" stroke-linecap="round" stroke-linejoin="round">
      <line x1="18" y1="6" x2="6" y2="18"/>
      <line x1="6" y1="6" x2="18" y2="18"/>
    </symbol>
    <!-- Chevron Right -->
    <symbol id="icon-chevron-right" viewBox="0 0 24 24" fill="none" stroke="currentColor" stroke-width="2" stroke-linecap="round" stroke-linejoin="round">
      <polyline points="9 18 15 12 9 6"/>
    </symbol>
    <!-- Trending Up -->
    <symbol id="icon-trend-up" viewBox="0 0 24 24" fill="none" stroke="currentColor" stroke-width="2" stroke-linecap="round" stroke-linejoin="round">
      <polyline points="23 6 13.5 15.5 8.5 10.5 1 18"/>
      <polyline points="17 6 23 6 23 12"/>
    </symbol>
    <!-- Trending Down -->
    <symbol id="icon-trend-down" viewBox="0 0 24 24" fill="none" stroke="currentColor" stroke-width="2" stroke-linecap="round" stroke-linejoin="round">
      <polyline points="23 18 13.5 8.5 8.5 13.5 1 6"/>
      <polyline points="17 18 23 18 23 12"/>
    </symbol>
    <!-- Check Circle -->
    <symbol id="icon-check-circle" viewBox="0 0 24 24" fill="none" stroke="currentColor" stroke-width="2" stroke-linecap="round" stroke-linejoin="round">
      <path d="M22 11.08V12a10 10 0 1 1-5.93-9.14"/>
      <polyline points="22 4 12 14.01 9 11.01"/>
    </symbol>
    <!-- Clock -->
    <symbol id="icon-clock" viewBox="0 0 24 24" fill="none" stroke="currentColor" stroke-width="2" stroke-linecap="round" stroke-linejoin="round">
      <circle cx="12" cy="12" r="10"/>
      <polyline points="12 6 12 12 16 14"/>
    </symbol>
  </defs>
</svg>
